<?xml version="1.0" encoding="UTF-8"?>
<svg width="262px" height="262px" viewBox="0 0 262 262" version="1.1" xmlns="http://www.w3.org/2000/svg" xmlns:xlink="http://www.w3.org/1999/xlink">
    <title>logo-emerchants</title>
    <g id="Page-1" stroke="none" stroke-width="1" fill="none" fill-rule="evenodd">
        <g id="Medium-2" transform="translate(-107.000000, -377.000000)">
            <g id="favico" transform="translate(107.000000, 377.000000)">
                <rect id="Rectangle" fill="#FF2000" x="0" y="0" width="262" height="262"></rect>
                <g id="e" transform="translate(131.092432, 130.809231) rotate(-25.000000) translate(-131.092432, -130.809231) translate(55.000000, 51.000000)" fill="#FFFFFF" fill-rule="nonzero">
                    <path d="M79.3298735,159.94359 C105.310173,159.94359 127.452474,149.276923 140.737855,132.68433 L125.38586,116.68433 C114.167094,127.350997 99.4055598,132.68433 82.8726417,132.68433 C56.5971111,132.68433 35.6357328,119.054701 30.6168113,92.3880342 L151.070929,92.3880342 C158.451696,27.7954416 115.938478,-0.0564102564 76.9680281,-0.0564102564 C37.9975783,-0.0564102564 -0.0871794872,28.0917379 -0.0871794872,79.9435897 C-0.0871794872,131.202849 37.7023476,159.94359 79.3298735,159.94359 Z M30.3215806,68.0917379 C35.0452715,40.8324786 55.7114191,27.7954416 77.2632588,27.7954416 C99.1103291,27.7954416 120.366938,41.4250712 122.138322,68.0917379 L30.3215806,68.0917379 Z" id="Shape"></path>
                </g>
            </g>
        </g>
    </g>
</svg>